<?xml version="1.0" standalone="no"?>
<!DOCTYPE svg PUBLIC "-//W3C//DTD SVG 20010904//EN"
 "http://www.w3.org/TR/2001/REC-SVG-20010904/DTD/svg10.dtd">
<svg version="1.0" xmlns="http://www.w3.org/2000/svg"
 width="300.000000pt" height="346.000000pt" viewBox="0 0 300.000000 346.000000"
 preserveAspectRatio="xMidYMid meet">

<g transform="translate(0.000000,346.000000) scale(0.100000,-0.100000)"
fill="#FFFFFF" stroke="none">
<path d="M810 3044 c0 -17 105 -283 116 -294 5 -5 133 -12 284 -17 l275 -8
133 -262 132 -263 130 0 c80 0 130 -4 130 -10 0 -5 23 -10 50 -10 28 0 50 5
50 11 0 16 -401 815 -418 831 -4 4 -185 11 -402 17 -217 6 -414 13 -437 15
-31 2 -43 0 -43 -10z"/>
<path d="M2248 2833 c-40 -49 -86 -105 -102 -125 l-28 -38 53 -102 c29 -57 60
-117 69 -133 43 -77 130 -253 130 -264 0 -6 -68 -113 -151 -237 -82 -124 -153
-232 -156 -240 -5 -15 128 -286 157 -318 5 -4 122 162 261 370 138 209 257
382 263 387 8 5 8 9 0 15 -6 4 -59 102 -119 217 -59 116 -120 233 -135 260
-15 28 -55 105 -90 173 -34 67 -66 122 -71 122 -5 0 -41 -39 -81 -87z"/>
<path d="M464 2526 c-12 -13 -67 -107 -257 -436 -49 -85 -111 -192 -138 -236
-27 -45 -49 -87 -49 -92 0 -12 9 -14 190 -36 99 -12 127 -13 137 -3 6 6 61 98
122 202 60 105 121 209 135 231 l24 42 296 -6 c175 -3 296 -1 296 4 0 5 38 74
85 153 47 79 84 145 83 147 -5 4 -626 24 -770 24 -75 0 -138 4 -140 9 -1 5 -8
3 -14 -3z"/>
<path d="M694 1877 c-28 -45 -140 -220 -248 -389 l-198 -307 185 -338 c101
-186 197 -362 212 -390 15 -29 30 -53 34 -52 7 0 182 224 194 249 6 12 -14 58
-71 161 -153 280 -184 340 -179 353 3 8 72 117 153 242 81 126 147 234 147
240 0 15 -163 314 -171 314 -4 -1 -30 -38 -58 -83z"/>
<path d="M2515 1463 c-76 -131 -145 -244 -153 -251 -9 -6 -30 -10 -47 -8 -16
3 -143 8 -281 11 l-250 7 -91 -154 c-50 -84 -88 -156 -85 -160 4 -3 156 -9
337 -13 182 -3 386 -11 454 -17 104 -9 125 -9 132 3 5 8 108 183 228 389 204
348 218 375 198 381 -12 3 -74 12 -137 19 -63 7 -119 17 -124 22 -29 25 -47 2
-181 -229z"/>
<path d="M898 1228 c-3 -7 92 -196 210 -419 l215 -406 331 -7 c182 -3 382 -9
444 -12 91 -5 112 -4 112 7 0 21 -112 293 -124 301 -6 4 -92 8 -191 8 -99 0
-223 3 -276 6 l-97 7 -18 36 c-11 20 -71 134 -133 254 l-115 217 -108 0 c-65
0 -108 4 -108 10 0 15 -137 13 -142 -2z"/>
</g>
</svg>
